<?xml version="1.0" encoding="utf-8"?>
<!-- Generator: Adobe Illustrator 23.0.1, SVG Export Plug-In . SVG Version: 6.00 Build 0)  -->
<svg version="1.1" id="Layer_1" xmlns="http://www.w3.org/2000/svg" xmlns:xlink="http://www.w3.org/1999/xlink" x="0px" y="0px"
	 viewBox="0 0 674 786" style="enable-background:new 0 0 674 786;" xml:space="preserve">
<style type="text/css">
	.st0{enable-background:new    ;}
	.st1{fill:#2D3A7A;}
	.st2{fill:#078FBE;}
	.st3{fill:#1C669F;}
	.st4{fill:#00B3DC;}
	.st5{fill:#4AC7EB;}
</style>
<g class="st0">
	<g>
		<path class="st1" d="M562.6,633.6c3.2-2.8,7.2-5.9,8.5-4.9c2.8,7.5,1,15-5,22.2c-6,5.4-11.6,10.1-18.7,15.8
			c5.5-6.6,7.2-13.5,4.6-20.5C552.2,642.9,562.5,633.7,562.6,633.6"/>
		<path class="st2" d="M388,569.7c10.1,2.2,6.3,16.3,0.1,20.6c-1.9,1.3-3.4,1.4-4.8,1.5c-19.3-1.4-39.2-2.1-59.3-2
			c1.7-7.8,1.5-14.7-0.3-22.3C345.5,567.5,367.1,568.2,388,569.7"/>
		<path class="st3" d="M539.1,612.9c2.5-2.5,7.3-6.6,10.7-5.6c7.2,4.3,12.7,8.8,16.4,13.3c1.9,5.9-16.5,19.9-18.7,18.2
			c-3.4-4.1-8.4-8.2-15.1-12.2C529.3,623,539,613,539.1,612.9"/>
		<path class="st3" d="M518.4,604.8c0.7-0.9,7.3-8.5,12-7.1c2.3,1,4.6,2,6.8,3c5.2,3.3-6.7,18-14,19.8c-1.3,0.3-1.8,0.1-2.4,0
			c-2-0.9-4.1-1.8-6.3-2.7C511.2,615.8,515.1,608.8,518.4,604.8"/>
		<path class="st3" d="M405.6,580.4c1-2.4,4.1-7.9,10.5-8.1c36.6,4,70,10.4,96.5,18.9c6.6,3.8-4.5,18.4-11.8,20.4
			c-0.8,0.2-1.9,0.2-2.7,0.1c-24.4-7.9-55.1-13.8-88.9-17.4C400.9,592,405.5,580.5,405.6,580.4"/>
		<path class="st1" d="M554.1,662.2c1.7-1.4,3.3-2.8,4.9-4.3c-6.3,5.3-14.7,12.5-21.2,17.5C542,672.2,548.3,667.2,554.1,662.2"/>
		<path class="st2" d="M286.8,578.4c-0.3-4.5,1.3-12.3,9.3-13.1c12.6,0.4,15.3,18.4,8.5,25.3C298.1,597.2,287.6,590,286.8,578.4
			 M269.4,577.1c2.1,16.5,16.3,38.6,34.4,36.9c25.9-5.4,29.1-53.1,4.6-68.1C289.5,534.3,265.7,548.8,269.4,577.1"/>
		<path class="st1" d="M574.6,520.9c2.2-3.7,5.8-8,10.4-7c5.8,2.6,11.3,5.3,16.2,8.1c6,3.4,11.2,6.9,15.4,10.4
			c-4.8,7.2-8.7,14.2-12.7,22.8c-4.1-3.4-9-6.7-14.7-10c-4.7-2.7-9.9-5.2-15.5-7.7C567.5,533.2,574.5,521,574.6,520.9"/>
		<path class="st3" d="M276.5,485.7c0.2-2.8,1.7-9.3,9.9-10.6c33.6-1.2,67.3-0.9,99.9,0.9c-3,8.5-3.8,16.3-2.6,25.3
			c-31.2-1.7-63.4-2.1-95.5-0.9C275.9,499.4,276.5,485.8,276.5,485.7"/>
		<path class="st2" d="M183.2,494.8c-0.3-2.8,0-9.4,7.6-11.5c1.4-0.2,2.8-0.4,4.2-0.6c17.9-2.4,36.2-4.3,54.7-5.6
			c13.4,0.6,14.9,17,9,22.7c-1.9,1.8-3.9,2.2-5.6,2.5c-17.7,1.3-35.2,3.1-52.3,5.4c-1.3,0.2-2.7,0.4-4,0.6
			C184.9,508.5,183.2,494.9,183.2,494.8"/>
		<path class="st3" d="M518.2,503.7c1.9-3.9,5.5-8.4,11.5-7.9c11.4,2.8,22.1,5.9,31.9,9.2c8.7,4.7,0.5,21.8-7.2,24
			c-0.9,0.2-2.2,0.2-3.1,0c-9.4-3.2-19.7-6.1-30.5-8.8C513.5,517.2,516.6,507,518.2,503.7"/>
		<path class="st3" d="M445.6,505.2c5.2-11.2,4.8-20.5,4.7-23.6c15.9,2,31.2,4.3,45.7,7c10.7,3.6,5.2,19.5-1.9,23.6
			c-2.3,1.3-4.1,1.2-5.5,1.2c-13.9-2.6-28.5-4.8-43.7-6.7C445.1,506.2,445.4,505.7,445.6,505.2"/>
		<path class="st4" d="M143.8,503.3c-1-4-1-11.2,5.4-13c4.2-0.8,8.5-1.7,12.8-2.4c10.9-1.2,17.4,15.6,11.2,22.5
			c-1.4,1.6-3,2-3.9,2.2c-4.2,0.8-8.3,1.5-12.3,2.3C150.2,515.9,145.2,508.7,143.8,503.3"/>
		<path class="st1" d="M617.1,548c2.7-4.4,7.9-11.2,10.2-9.1c3.6,6.5-11.1,29.4-15.7,28.5C608.4,566.8,612,556.3,617.1,548
			 M610.7,542c-5.8,10.2-20.7,40.6-13.9,46.9c13.5,5.1,49.2-55.6,42.4-72.1C635.9,508.8,623.1,520.1,610.7,542"/>
		<path class="st3" d="M404.4,488.3c1.1-5,5.5-13.5,14.9-13.2c13,2,13.4,20.8,3.4,28.7c-9.5,7.5-20.4-0.7-18.6-13.8
			C404.2,489.5,404.3,488.8,404.4,488.3 M383.6,487c-2.3,17.3,5.3,43.3,28.7,44.1c33.5-2.2,51.4-54.4,25.9-75.5
			C417.7,438.8,387.7,456.1,383.6,487"/>
		<path class="st1" d="M520.9,401c0.8-2.8,3.6-9.2,11-8.7c29.8,6.3,56.3,14,77.8,23c-3,8.4-4.7,16.5-5.4,26.1
			c-21.1-8.8-47.1-16.4-76.4-22.5C517.2,415,520.8,401.1,520.9,401"/>
		<path class="st3" d="M425.3,388c0.7-2.9,3.3-9.5,12-9.7c21,2,41.3,4.6,60.6,7.7c12,3.6,10.7,20.4,2.8,25.3c-2.3,1.4-4.4,1.4-6,1.3
			c-18.9-3.1-38.9-5.6-59.5-7.6C422.3,402.3,425.2,388.2,425.3,388"/>
		<path class="st4" d="M266.5,385.4c0.4-2.9,2.4-9.9,11.6-11.3c22.5-0.9,45-1.2,67.3-0.8c14.1,1.8,14.8,18.7,6.4,24.7
			c-2.4,1.8-4.8,2-6.7,2.2c-21.9-0.3-44-0.1-66,0.8C265.1,400,266.5,385.5,266.5,385.4"/>
		<path class="st5" d="M240.8,376.2c14.9,0.6,15.2,18,8.1,24.1c-2.3,2-4.6,2.4-6.5,2.8c-20.2,1.5-40.3,3.5-59.8,6.2
			c-16.2,2.2-31.5,4.7-45.8,7.5c0.7-9.6-0.4-17.8-3.7-26.6c14.6-2.8,30.1-5.4,46.7-7.6C199.7,379.8,220.1,377.7,240.8,376.2"/>
		<path class="st1" d="M663.9,471.1c1.9-6.9,2.5-7.2,2.8-7.3c0,0.1,0.1,0.3,0.2,0.4c0.4,3,0.2,5.9-0.4,8.9c-2.1,8.2-4.6,19.2-7,27.2
			c1.1-3.6,1.4-7.3,1-10.9C660.3,484.3,663.9,471.3,663.9,471.1"/>
		<path class="st1" d="M661.8,451.1c2.3,5.8-2,25.2-5.8,25.9c-0.2-0.1-0.4-0.3-0.5-0.4c-3.4-5.3-8.6-10.6-15.6-15.8
			c3.3-8.2,5.2-16.1,6-25.7C653,440.3,658.3,445.7,661.8,451.1"/>
		<path class="st2" d="M375.2,386.2c0.5-4.3,3.7-11.5,12.3-11.6c5.5,0.3,10.9,0.6,16.3,0.9c12.1,1.5,14.4,17.4,6.1,24.3
			c-3.1,2.6-6.1,2.6-7.6,2.6c-5.3-0.3-10.6-0.7-16-0.9C377.4,400.6,374.5,392,375.2,386.2"/>
		<path class="st1" d="M619.9,432.3c1.4-5.1,5.1-13,10.5-10.7c9.6,6.5,3.3,31.9-4.8,32.8C619.8,455,616.9,443.6,619.9,432.3
			 M606.5,426.2c-4.1,18.5-3.6,47.3,10.6,53.7c23.9,6.2,37.1-56.9,22.7-79.1C629.5,384.7,612.9,397.4,606.5,426.2"/>
		<path class="st5" d="M93.4,411.2c-0.5-5,0.8-15.1,9.1-17.8c12.6-2.2,18.4,18.3,11.2,28.7c-6.4,9.1-17.8,3.9-20-9.2
			C93.5,412.4,93.4,411.7,93.4,411.2 M76.2,413.4c2.5,23.6,19,44.7,39.5,38.3c32.5-14.2,24.7-74.8-3.5-84.5
			C91.6,360.2,73,383.9,76.2,413.4"/>
		<path class="st4" d="M80.7,309.8c0.5-2.9,2.5-9.9,9.4-12.8c19.2-5.1,40.9-9.7,64.8-13.6c-2.9,9.3-3.2,17.3-0.9,26.2
			c-24,3.9-45.8,8.5-65.2,13.6C79.8,324.4,80.2,313,80.7,309.8"/>
		<path class="st2" d="M252.5,283.2c0.6-2.8,3-9.5,12.4-11c37.9-1.9,76.2-2,113.4-0.5c-2.4,8.7-2.4,16.8,0.2,26.1
			c-37.4-1.6-75.9-1.5-114,0.5C252,297.6,251.9,286.2,252.5,283.2"/>
		<path class="st3" d="M542.5,316.1c2.3-11.6-0.5-21.5-1.4-24.7c24.1,5.3,45.9,11.5,64.6,18.7c10,5.5,10.3,24.2,4.3,26.4
			c-0.8,0.3-2.1,0.1-2.9-0.1c-18.8-7.1-40.7-13.4-64.9-18.7C542.3,317.2,542.4,316.6,542.5,316.1"/>
		<path class="st4" d="M25.3,331c0.4-2.9,2-10.1,6.7-13.3c8.5-4.1,18.1-7.9,28.7-11.6c9.5-1.7,8.1,15.4,3,22.5
			c-1.7,2.3-2.6,2.8-4.5,3.8C48.6,336,39,339.9,30.4,344C24.4,345.6,24.7,334.8,25.3,331"/>
		<path class="st5" d="M0.2,348.8c0.4-3.9,1.9-12.2,4.9-15c1.9-1.5,3.9-2.9,6-4.4c4.2-2.3,4.9,9.6,2.2,19.1
			c-1.6,5.4-3.3,6.8-3.9,7.3c-2.1,1.5-4.1,2.9-6,4.4C0.3,362.2-0.4,354.6,0.2,348.8"/>
		<path class="st1" d="M623.6,327.6c0-1,0.6-9.2,5.6-7.3c0.2,0.1,19.7,9.3,31.4,21.6c8.4,8.8,9.5,13.4,11.5,21.8
			c0.6,8.6,1.7,20.2,1.9,28.8c-0.3-14-11.7-28.1-35.3-41.5c-2.5-1.5-5.2-2.9-8-4.3C624.3,342.1,623.5,330.5,623.6,327.6"/>
		<path class="st4" d="M175.8,291.6c0.7-5.2,4.6-14.4,15.5-16.3c14.7-1,18.8,15.8,9.8,26.5c-9.1,10.8-24.6,6.7-25.4-6.8
			C175.6,293.9,175.6,292.6,175.8,291.6 M152.6,295c-1.4,19,11,44.6,41.9,39.2c38.7-11.1,46.3-62.9,19.6-79.4
			C189.5,239.7,155,262.2,152.6,295"/>
		<path class="st2" d="M400.8,284.1c0.4-5.1,4-13.6,14.6-13.4c15.2,2,19.6,21.3,9.9,29.5C415.2,308.9,399.7,298.6,400.8,284.1
			 M376.5,282.8c-0.6,18.9,12.8,47,43.1,47.6c38.8-3.7,44.1-54.3,16.3-76C410.8,234.9,377.5,250.8,376.5,282.8"/>
		<path class="st3" d="M497.1,294.3c0.3-5,3.2-13.3,12.5-12.2c14.4,3.4,18.1,24.4,8.4,31.1C509.1,319.4,496.4,307.9,497.1,294.3
			 M475.2,288.5c-1.1,20.4,11.4,50.3,37.9,53.6c34.7,0.7,39.5-48.2,14.8-73.5C506,246.3,476.9,257.2,475.2,288.5"/>
		<path class="st1" d="M647.6,268.2c-0.8-2-1.6-4.1-2.5-6.1l3.3,7.8l6.1,16.1l-0.2-0.5C653.1,282.3,650.2,274.6,647.6,268.2"/>
		<path class="st4" d="M323.1,202.3c3.1-9.8,0.6-17.4-0.2-19.8c28.4-0.1,56.6,0.9,83.8,2.8c13,2.2,15.4,15.5,8.4,19.8
			c-2.1,1.3-4.3,1.3-6.1,1.4c-28-2-57-3-86.3-2.9C322.8,203.2,323,202.7,323.1,202.3"/>
		<path class="st1" d="M615.6,240c-0.5-1.9-2-7.8,1.7-5.9c9.4,5.6,16.5,11.4,21.3,17.3c3.7,5.1,10.1,20.5,9.9,23.6
			c-0.1,0-0.2,0-0.2,0.1c-0.1-0.1-0.3-0.3-0.5-0.4c-5-6-12.3-12-21.9-17.8C619.3,251.8,615.7,240.1,615.6,240"/>
		<path class="st1" d="M588.9,228.8c-1-3.4-1.4-8.7,3.2-7.1c3,1.3,6,2.5,8.8,3.9c8,4.3,14.4,21,10.2,22.7c-0.7,0.3-1.4,0-2.2-0.3
			c-2.9-1.4-6-2.7-9.1-4C594.6,241.4,590.3,233.6,588.9,228.8"/>
		<path class="st3" d="M434,195.8c0.2-2.2,1.3-7.3,9.2-7.3c47.7,5.2,91.1,13.5,125.6,24.6c10.6,4.7,15,20.4,9.9,22.2
			c-0.8,0.3-2,0-2.8-0.1c-35.5-11.4-80.2-20-129.3-25.4C433.8,207.3,434,195.9,434,195.8"/>
		<path class="st4" d="M272.2,192.8c0.8-4.2,4.9-11.4,15.3-12.2c14.2,0.1,17.9,14.1,9.1,22.2c-9.7,8.8-25.5,3.3-24.5-8.6
			C272.1,193.7,272.1,193.2,272.2,192.8 M249.4,192c-4.4,19.4,10.4,39.6,38.7,37.5c37.1-5.5,47.3-44,24.1-61.5
			C289.1,150.4,255,167.3,249.4,192"/>
		<path class="st3" d="M553.4,154.1c-2.4-3.7-1.8-4.4-1.6-4.8c0.5,0,1.1,0.1,1.6,0.3c5.1,2.3,9.8,4.6,14.1,7c5.3,3,9.8,6.1,13.5,9.1
			c4.7,5.6,9.1,10.9,15.1,18.5c-3.9-3.3-8.7-6.5-14.3-9.7c-4.6-2.6-9.6-5.1-15-7.5C559.7,163.3,553.4,154.2,553.4,154.1"/>
		<path class="st4" d="M281.8,122.1c0.7-1.6,3.2-5.6,10.6-6.4c29.4-1.1,58.9-0.8,87.3,0.8c-0.9,5.1,0,9.9,3,15.5
			c-30.2-1.7-61.5-2-92.6-0.8C280.3,130.7,280.9,124.3,281.8,122.1"/>
		<path class="st4" d="M196.8,130.3c1.2-1.7,4.8-5.9,12-7.5c1.2-0.2,2.4-0.3,3.7-0.5c15.6-2.1,31.6-3.7,47.8-4.9
			c9.7,0.1,9,7.5,5,11.4c-3.3,3.3-7.4,3.9-9.2,4.1c-17.2,1.3-34.1,3-50.7,5.2c-1.3,0.2-2.6,0.4-3.9,0.5
			C192.5,139.3,195.1,132.7,196.8,130.3"/>
		<path class="st3" d="M502,138.5c-1.1-2.5-1.5-5.4,3-4.7c9.9,2.5,19.3,5.1,27.9,8c9.4,4,17.5,15.9,14.3,17.2
			c-0.6,0.2-1.5,0-2.1-0.2c-9.2-3.1-19-5.9-29.6-8.5C506.3,147.2,502.1,138.6,502,138.5"/>
		<path class="st4" d="M475.6,127.5c10.2,2.7,16.3,12.8,12.7,15.6c-1.1,0.8-2.7,0.7-4,0.6c-13.5-2.5-27.6-4.6-42.3-6.5
			c-0.2-5.4-2.1-10.2-6.4-15.8C449.5,123.1,462.9,125.1,475.6,127.5"/>
		<path class="st5" d="M160.1,137.8c1.7-2.4,6.4-7.4,12.4-8.8c3.7-0.7,7.4-1.4,11.2-2.1c6.7-0.9,6,4.5,2.6,8.9
			c-1.1,1.4-5.1,5.9-11.4,7.3c-4,0.7-8,1.5-11.9,2.3C156.7,146.2,157.5,141.5,160.1,137.8"/>
		<path class="st3" d="M593.1,178.8c-1.7-2-3.3-4-5.1-6l1.4,1.6c5.1,6.4,12.2,14.7,17.1,21.2C605.4,194.1,599.1,186,593.1,178.8
			 M587.2,173.3c9.7,11.9,15.7,19.8,33.6,43.3c0.1,0.1,0.2,0.3,0.3,0.4c-19.3-28.2-19.7-28.8-31.7-42.7c-5.5-5.9-12.7-14-18.5-19.7
			l0.1,0.1C575.1,159,580.6,165.2,587.2,173.3"/>
		<path class="st4" d="M398.6,124.2c-0.4-3,1-7.9,8.9-7.5c12,1.5,18.8,13.2,12.8,17.9C413.9,139.6,399.8,132.9,398.6,124.2
			 M379.6,122.9c1.9,13.9,18.1,29.6,40.7,30.8c24.7-0.5,27.3-20.5,12.1-36c-20.8-21.1-53-19.7-53,2.3
			C379.4,120.9,379.5,122.1,379.6,122.9"/>
	</g>
</g>
</svg>
