<?xml version="1.0" encoding="utf-8"?>
<!-- Generator: Adobe Illustrator 23.0.2, SVG Export Plug-In . SVG Version: 6.00 Build 0)  -->
<svg version="1.1" id="Layer_1" xmlns="http://www.w3.org/2000/svg" xmlns:xlink="http://www.w3.org/1999/xlink" x="0px" y="0px"
	 viewBox="0 0 674 786" style="enable-background:new 0 0 674 786;" xml:space="preserve">
<style type="text/css">
	.st0{fill:url(#SVGID_1_);}
	.st1{fill:url(#SVGID_2_);}
	.st2{fill:url(#SVGID_3_);}
	.st3{fill:url(#SVGID_4_);}
	.st4{fill:url(#SVGID_5_);}
	.st5{fill:url(#SVGID_6_);}
	.st6{fill:url(#SVGID_7_);}
	.st7{fill:url(#SVGID_8_);}
	.st8{fill:url(#SVGID_9_);}
	.st9{fill:url(#SVGID_10_);}
</style>
<g>
	<g>
		<linearGradient id="SVGID_1_" gradientUnits="userSpaceOnUse" x1="27.1333" y1="630.6823" x2="27.1333" y2="374.9793">
			<stop  offset="0" style="stop-color:#FFF100"/>
			<stop  offset="0.1095" style="stop-color:#FEEC01"/>
			<stop  offset="0.2477" style="stop-color:#FDDC04"/>
			<stop  offset="0.4013" style="stop-color:#FAC208"/>
			<stop  offset="0.5661" style="stop-color:#F69E0F"/>
			<stop  offset="0.7399" style="stop-color:#F07017"/>
			<stop  offset="0.9184" style="stop-color:#EA3820"/>
			<stop  offset="0.9949" style="stop-color:#E71E25"/>
		</linearGradient>
		<path class="st0" d="M53.3,372.6c0,6-4.7,8-7,8c-1.4,0-2.6-1.1-3.5-2.2c-6.1-7.1-9-8.8-12.1-8.8c-2.1,0-4,2-4,4
			c0,1.7,0.9,3.9,4,6.9l5.8,6c5.3,5.5,7.8,10.3,7.8,15.7c0,6.3-3.4,12.3-9.2,17.1c-5.2,4.5-11.8,6.8-19.1,6.8
			c-7,0-15.1-4.3-15.1-11.9c0-4.9,3.5-8.9,7.5-8.9c1.7,0,2.9,1.5,4.7,3.4c6,6.3,9,8,12.1,8c2.7,0,5.2-2.2,5.2-4.5
			c0-2.2-1.4-4.6-4.4-7.9l-5-5.4c-4.7-4.9-7.5-10-7.5-15.6c0-6.6,4-12.8,8.6-16.8c4.4-3.7,10.1-6.5,16.3-6.5
			C46.6,360.3,53.3,365.7,53.3,372.6z"/>
		<linearGradient id="SVGID_2_" gradientUnits="userSpaceOnUse" x1="80.4279" y1="630.6821" x2="80.4279" y2="374.9793">
			<stop  offset="0" style="stop-color:#FFF100"/>
			<stop  offset="0.1095" style="stop-color:#FEEC01"/>
			<stop  offset="0.2477" style="stop-color:#FDDC04"/>
			<stop  offset="0.4013" style="stop-color:#FAC208"/>
			<stop  offset="0.5661" style="stop-color:#F69E0F"/>
			<stop  offset="0.7399" style="stop-color:#F07017"/>
			<stop  offset="0.9184" style="stop-color:#EA3820"/>
			<stop  offset="0.9949" style="stop-color:#E71E25"/>
		</linearGradient>
		<path class="st1" d="M78.1,411.6c-0.6,1.4-0.5,2.3,0.6,2.3c2.1,0,10.5-6,14.4-9.7c1.8,0,3.4,1.7,2.9,3.7c-6,8-19.5,18.3-32.1,18.3
			c-4,0-7-4.3-7-6.2c0-1.7,0.6-3.5,1.8-6.6l15.9-38.3c0.5-1.2,0.5-2.2-0.3-2.2c-2.6,0-11.1,6.5-13.6,8.8c-1.8-0.3-3.1-2.3-2.4-3.7
			c8.2-10.2,22.6-17.7,30.7-17.7c3.4,0,7,3.4,7,6.8c0,1.5-1.1,4.5-2,6.8L78.1,411.6z M95.5,326.6c5.2,0,8.6,3.2,8.6,9.1
			c0,6.8-4.6,12.5-11.6,12.5c-5.7,0-9-3.8-9-8.8C83.4,332.6,88.4,326.6,95.5,326.6z"/>
		<linearGradient id="SVGID_3_" gradientUnits="userSpaceOnUse" x1="141.0568" y1="630.6823" x2="141.0568" y2="374.9793">
			<stop  offset="0" style="stop-color:#FFF100"/>
			<stop  offset="0.1095" style="stop-color:#FEEC01"/>
			<stop  offset="0.2477" style="stop-color:#FDDC04"/>
			<stop  offset="0.4013" style="stop-color:#FAC208"/>
			<stop  offset="0.5661" style="stop-color:#F69E0F"/>
			<stop  offset="0.7399" style="stop-color:#F07017"/>
			<stop  offset="0.9184" style="stop-color:#EA3820"/>
			<stop  offset="0.9949" style="stop-color:#E71E25"/>
		</linearGradient>
		<path class="st2" d="M137.3,370l-7.2,18.9h0.6c8.9-12.5,20.8-28.6,35.7-28.6c6.9,0,9.6,4.9,9.6,8.9c0,3.7-1.2,8.9-3.1,13.7
			c-2.9,7.7-6.7,16.6-11.3,27.6c-0.9,2.2-0.6,3.4,0.6,3.4c2.3,0,9.6-6,13.6-10.5c1.7-0.3,3.2,0.9,3.1,2.9
			c-4.3,7.7-16.9,19.9-32.1,19.9c-3.5,0-6.6-3.2-6.6-6c0-2.3,1.1-5.4,2.3-8.3c4.6-10.8,9.2-21.4,13-32.2c1.4-3.7,2-5.7,2-7.2
			c0-1.2-0.6-2.2-2-2.2c-2.1,0-6.3,2.9-11.6,9.9c-8.6,11.1-16.8,28.5-23.7,43.3c-1.1,2.2-4,2.8-7.3,2.8c-3.8,0-9.8-1.2-8.2-6.2
			c0.8-2.2,12.4-35.1,14.7-41.7c1.1-3.1,1.2-5.5-0.6-5.5c-3.2,0-9.5,4.9-13,8.3c-1.5,0-2.6-1.2-2.7-2.5c4-8,16.8-18.3,29.2-18.3
			C139.3,360.3,138.7,366.5,137.3,370z"/>
		<linearGradient id="SVGID_4_" gradientUnits="userSpaceOnUse" x1="217.9395" y1="630.6823" x2="217.9395" y2="374.9793">
			<stop  offset="0" style="stop-color:#FFF100"/>
			<stop  offset="0.1095" style="stop-color:#FEEC01"/>
			<stop  offset="0.2477" style="stop-color:#FDDC04"/>
			<stop  offset="0.4013" style="stop-color:#FAC208"/>
			<stop  offset="0.5661" style="stop-color:#F69E0F"/>
			<stop  offset="0.7399" style="stop-color:#F07017"/>
			<stop  offset="0.9184" style="stop-color:#EA3820"/>
			<stop  offset="0.9949" style="stop-color:#E71E25"/>
		</linearGradient>
		<path class="st3" d="M249.1,382.8c0,11.1-5.3,24-14.2,32.6c-7.9,7.7-17.1,10.8-26,10.8c-15.6,0-22.3-10.6-22.1-21.4
			c0.2-11.9,5.8-25.9,16-34.8c8.9-7.7,16.9-9.7,23.8-9.7C243,360.3,249.1,371.7,249.1,382.8z M219.5,372.9
			c-5.5,6.9-15.1,25.4-15.1,40.2c0,3.9,1.8,6.3,4.7,6.3c3.8,0,7.2-3.5,11.3-10.3c4.1-6.9,11.6-23.9,11.6-35.6c0-3.2-0.9-6.5-4.3-6.5
			C225.3,367.1,222.7,368.9,219.5,372.9z"/>
		<linearGradient id="SVGID_5_" gradientUnits="userSpaceOnUse" x1="278.3357" y1="630.6823" x2="278.3357" y2="374.9793">
			<stop  offset="0" style="stop-color:#FFF100"/>
			<stop  offset="0.1095" style="stop-color:#FEEC01"/>
			<stop  offset="0.2477" style="stop-color:#FDDC04"/>
			<stop  offset="0.4013" style="stop-color:#FAC208"/>
			<stop  offset="0.5661" style="stop-color:#F69E0F"/>
			<stop  offset="0.7399" style="stop-color:#F07017"/>
			<stop  offset="0.9184" style="stop-color:#EA3820"/>
			<stop  offset="0.9949" style="stop-color:#E71E25"/>
		</linearGradient>
		<path class="st4" d="M304.5,372.6c0,6-4.7,8-7,8c-1.4,0-2.6-1.1-3.5-2.2c-6.1-7.1-9-8.8-12.1-8.8c-2.1,0-4,2-4,4
			c0,1.7,0.9,3.9,4,6.9l5.8,6c5.3,5.5,7.8,10.3,7.8,15.7c0,6.3-3.4,12.3-9.2,17.1c-5.2,4.5-11.8,6.8-19.1,6.8
			c-7,0-15.1-4.3-15.1-11.9c0-4.9,3.5-8.9,7.5-8.9c1.7,0,2.9,1.5,4.7,3.4c6,6.3,9,8,12.1,8c2.7,0,5.2-2.2,5.2-4.5
			c0-2.2-1.4-4.6-4.4-7.9l-5-5.4c-4.7-4.9-7.5-10-7.5-15.6c0-6.6,4-12.8,8.6-16.8c4.4-3.7,10.1-6.5,16.3-6.5
			C297.8,360.3,304.5,365.7,304.5,372.6z"/>
		<linearGradient id="SVGID_6_" gradientUnits="userSpaceOnUse" x1="346.3596" y1="630.6823" x2="346.3596" y2="374.9793">
			<stop  offset="0" style="stop-color:#FFF100"/>
			<stop  offset="0.1095" style="stop-color:#FEEC01"/>
			<stop  offset="0.2477" style="stop-color:#FDDC04"/>
			<stop  offset="0.4013" style="stop-color:#FAC208"/>
			<stop  offset="0.5661" style="stop-color:#F69E0F"/>
			<stop  offset="0.7399" style="stop-color:#F07017"/>
			<stop  offset="0.9184" style="stop-color:#EA3820"/>
			<stop  offset="0.9949" style="stop-color:#E71E25"/>
		</linearGradient>
		<path class="st5" d="M346.5,366.8c0,1.2-0.3,3.2-0.8,4.3l-15.1,37.4c-1.1,2.8-0.6,4.2,1.2,4.2c0.9,0,2.7-0.6,5.8-3.2
			c12.7-10.9,23.7-33.4,30.5-47.9c1.7-0.8,3.4-1.2,5.7-1.2c5,0,8.6,1.7,10.7,3.4c-5.8,15.1-12.1,30.3-17.4,45.4
			c-0.6,1.8-1.2,4.3,0.8,4.3c2.4,0,10.1-6,13.9-10c1.8,0.3,2.7,1.4,2.7,3.5c-4.3,7.5-19.2,19.2-32.1,19.2c-3.8,0-7-3.2-5.2-7.9
			l8.6-21.9h-0.3c-8.1,11.5-24.9,29.7-37.1,29.7c-5.2,0-8.4-3.7-8.4-8c0-2.8,1.1-5.9,2.3-9.1l12.7-32.2c0.8-2,0.6-4-0.6-4
			c-3.1,0-9.3,6-13.6,9.4c-1.7-0.6-2.7-1.5-2.6-3.7c5.8-7.9,19.9-18.3,31.5-18.3C343.3,360.3,346.5,363.9,346.5,366.8z"/>
		<linearGradient id="SVGID_7_" gradientUnits="userSpaceOnUse" x1="427.9967" y1="630.6823" x2="427.9967" y2="374.9793">
			<stop  offset="0" style="stop-color:#FFF100"/>
			<stop  offset="0.1095" style="stop-color:#FEEC01"/>
			<stop  offset="0.2477" style="stop-color:#FDDC04"/>
			<stop  offset="0.4013" style="stop-color:#FAC208"/>
			<stop  offset="0.5661" style="stop-color:#F69E0F"/>
			<stop  offset="0.7399" style="stop-color:#F07017"/>
			<stop  offset="0.9184" style="stop-color:#EA3820"/>
			<stop  offset="0.9949" style="stop-color:#E71E25"/>
		</linearGradient>
		<path class="st6" d="M424.3,370l-7.2,18.9h0.6c8.9-12.5,20.8-28.6,35.7-28.6c6.9,0,9.6,4.9,9.6,8.9c0,3.7-1.2,8.9-3.1,13.7
			c-2.9,7.7-6.7,16.6-11.3,27.6c-0.9,2.2-0.6,3.4,0.6,3.4c2.3,0,9.6-6,13.6-10.5c1.7-0.3,3.2,0.9,3.1,2.9
			c-4.3,7.7-16.9,19.9-32.1,19.9c-3.5,0-6.6-3.2-6.6-6c0-2.3,1.1-5.4,2.3-8.3c4.6-10.8,9.2-21.4,13-32.2c1.4-3.7,2-5.7,2-7.2
			c0-1.2-0.6-2.2-2-2.2c-2.1,0-6.3,2.9-11.6,9.9c-8.6,11.1-16.8,28.5-23.7,43.3c-1.1,2.2-4,2.8-7.3,2.8c-3.8,0-9.8-1.2-8.2-6.2
			c0.8-2.2,12.4-35.1,14.7-41.7c1.1-3.1,1.2-5.5-0.6-5.5c-3.2,0-9.5,4.9-13,8.3c-1.5,0-2.6-1.2-2.7-2.5c4-8,16.8-18.3,29.2-18.3
			C426.2,360.3,425.6,366.5,424.3,370z"/>
	</g>
	<g>
		<g>
			<radialGradient id="SVGID_8_" cx="425.3694" cy="452.1966" r="462.5794" gradientUnits="userSpaceOnUse">
				<stop  offset="0.1806" style="stop-color:#EE4036"/>
				<stop  offset="0.2522" style="stop-color:#EF4A33"/>
				<stop  offset="0.375" style="stop-color:#F2662C"/>
				<stop  offset="0.533" style="stop-color:#F69220"/>
				<stop  offset="0.622" style="stop-color:#F9AE18"/>
				<stop  offset="0.7396" style="stop-color:#FCC00C"/>
				<stop  offset="0.8782" style="stop-color:#FECD03"/>
				<stop  offset="1" style="stop-color:#FFD200"/>
			</radialGradient>
			<path class="st7" d="M512.3,463c-10.1-0.6-20.1-1.8-30.1-3.6c-1-0.2-1.2-0.5-1.3-1.5c-0.4-13.6,0-27.3,1.3-40.9
				c2.1-23.2,7.2-45.8,13.7-68.1c2.1-7.1,4.4-14.2,6.6-21.3c0.3-0.8,0.7-1.3,1.6-1.5c10.7-2.3,21.6-4,32.5-5
				c6.1-0.6,12.2-1,18.4-1.2c13.2-0.3,26.4-0.7,39.7-0.6c10.7,0.1,21.4,0.5,32.1,1.3c10.2,0.7,20.5,1.8,30.7,3
				c5.1,0.6,10.1,1.9,15.2,2.9c1.1,0.2,1.4,0.7,1.4,1.9c-0.1,12.7-0.7,25.4-2,38c-2.2,21.7-6.8,42.9-12.7,63.8
				c-2.6,9.2-5.7,18.4-8.5,27.5c-0.3,1.1-0.9,1.5-1.9,1.6c-7.5,0.8-15,1.8-22.6,2.5c-9.6,0.8-19.2,1.3-28.8,1.8
				c-6.8,0.3-13.6,0.5-20.4,0.6c-9,0.1-17.9,0-26.9,0L512.3,463z M583.8,382.4c0-0.7,0-1.1,0-1.5c0-7.3,0-14.6,0-21.9
				c0-1-0.3-1.5-1.3-1.5c-2.2,0-4.3,0-6.5,0.1c-1.2,0-1.5,0.6-1.5,1.8c0,20.5,0,41,0,61.5c0,1,0.3,1.4,1.2,1.6
				c7.2,2.2,14.5,2.9,21.9,1.5c9.2-1.8,16.2-9.1,17.5-18.4c0.8-5.9,0.2-11.7-1.5-17.3c-1.1-3.5-3.1-6.5-6.2-8.6
				C600.5,375,589.4,375.2,583.8,382.4z M560,393.8c-2.6,0-5.1,0-7.5,0c-4.2-0.1-8.1,0.9-11.7,3.1c-4.6,2.9-7.5,6.7-7.5,12.4
				c0,7.1,3.8,12.8,10.4,14.2c3.5,0.7,7.2,1,10.7,0.8c4.3-0.2,8.6-1.2,12.9-1.8c1.1-0.1,1.3-0.7,1.3-1.7c0-9.2,0-18.3,0-27.5
				c0-2.1-0.2-4.2-0.6-6.2c-0.8-4.4-3-7.7-7.1-9.7c-2.4-1.2-4.9-1.7-7.6-2c-5.1-0.4-10.2,0-15.2,1.3c-1.2,0.3-1.7,0.9-1.4,2.1
				c0.4,1.5,0.8,3.1,1.2,4.6c0.3,1,0.9,1.3,1.9,1c4.1-1.1,8.2-1.5,12.4-1.2c2.7,0.2,5.3,0.9,6.7,3.6
				C560.1,389.1,560.2,391.5,560,393.8z M630.1,424.6c5.4,0,9.5-0.9,13.3-3.2c2.9-1.7,5.2-3.9,5.9-7.3c0.4-2.2,0.7-4.6,0.5-6.8
				c-0.2-3.2-1.8-5.8-4.3-7.9c-3.9-3.2-8.8-4.3-13.3-6.2c-1.3-0.5-2.7-1.3-3.6-2.4c-2.2-2.5-1.2-6,2-7.1c1.2-0.4,2.5-0.7,3.8-0.8
				c3.9-0.2,7.6,0.5,11.2,1.8c0.9,0.3,1.4,0.2,1.6-0.8c0.4-1.7,0.9-3.3,1.4-5c0.3-1,0-1.6-1.1-1.8c-3-0.6-6-1.4-9-1.8
				c-5.3-0.6-10.4,0.2-15,3.3c-5.9,4-7.9,15.6,1.1,20.2c2.3,1.2,4.7,2.1,7.1,3.1c2.2,1,4.4,1.9,6.5,3.1c2.3,1.3,3.1,5.5,1.5,7.4
				c-2.5,3-5.8,4.4-9.7,3.9c-3.1-0.4-6.2-1.2-9.4-1.9c-0.6-0.1-1-0.2-1.2,0.5c-0.5,1.9-1,3.7-1.5,5.6c-0.3,1.1,0,1.7,1.2,2
				C623,423.8,627,424.4,630.1,424.6z M529.1,417.1c-1.5,0-2.7,0.1-3.9,0c-3-0.3-4.3-0.9-5.2-3.9c-0.3-1.1-0.3-2.3-0.3-3.5
				c0-16.6,0-33.2,0-49.8c0-0.4,0.1-0.9,0-1.2c-0.1-0.4-0.5-1-0.8-1c-2.4-0.1-4.8,0-7.2,0c-0.9,0-1.2,0.6-1.2,1.5
				c0,17.5,0,35.1,0,52.6c0,1.3,0.1,2.6,0.5,3.9c1.2,4.2,3.6,7,8.1,7.9c3.5,0.7,7,0.5,10.7,0C529.6,421.3,529.4,419.1,529.1,417.1z"
				/>
			<radialGradient id="SVGID_9_" cx="425.3694" cy="452.1966" r="462.5794" gradientUnits="userSpaceOnUse">
				<stop  offset="0.1806" style="stop-color:#EE4036"/>
				<stop  offset="0.2522" style="stop-color:#EF4A33"/>
				<stop  offset="0.375" style="stop-color:#F2662C"/>
				<stop  offset="0.533" style="stop-color:#F69220"/>
				<stop  offset="0.622" style="stop-color:#F9AE18"/>
				<stop  offset="0.7396" style="stop-color:#FCC00C"/>
				<stop  offset="0.8782" style="stop-color:#FECD03"/>
				<stop  offset="1" style="stop-color:#FFD200"/>
			</radialGradient>
			<path class="st8" d="M583.9,405.2c0-3.1-0.1-6.1,0.1-9.2c0.1-1.8,0.5-3.6,1.2-5.2c2.7-6.1,9.1-7.4,14.3-5.9
				c2.5,0.8,3.7,2.8,4.7,5c1.8,4.1,2,8.4,1.6,12.8c-0.3,3.1-0.8,6.2-2.9,8.7c-3.6,4.2-8.1,6.1-13.6,5.5c-1.5-0.2-2.9-0.4-4.4-0.6
				c-0.8-0.1-1-0.6-1-1.3C583.9,411.7,583.8,408.4,583.9,405.2C583.8,405.2,583.9,405.2,583.9,405.2z"/>
			<radialGradient id="SVGID_10_" cx="425.3694" cy="452.1966" r="462.5794" gradientUnits="userSpaceOnUse">
				<stop  offset="0.1806" style="stop-color:#EE4036"/>
				<stop  offset="0.2522" style="stop-color:#EF4A33"/>
				<stop  offset="0.375" style="stop-color:#F2662C"/>
				<stop  offset="0.533" style="stop-color:#F69220"/>
				<stop  offset="0.622" style="stop-color:#F9AE18"/>
				<stop  offset="0.7396" style="stop-color:#FCC00C"/>
				<stop  offset="0.8782" style="stop-color:#FECD03"/>
				<stop  offset="1" style="stop-color:#FFD200"/>
			</radialGradient>
			<path class="st9" d="M559.7,401.7c0,0.7,0,1.4,0,2.1c0,3.7,0,7.4,0,11.1c0,0.7-0.1,1.2-0.9,1.3c-4.6,0.9-9.2,1.6-13.7-0.4
				c-1.4-0.6-2.2-1.7-2.8-3c-1.4-3.1-0.5-8.9,4.2-10.1c1.5-0.4,3-0.8,4.5-0.9c2.6-0.2,5.1-0.2,7.7-0.2
				C559.1,401.5,559.4,401.6,559.7,401.7z"/>
		</g>
	</g>
</g>
</svg>
