<?xml version="1.0" encoding="utf-8"?>
<!-- Generator: Adobe Illustrator 23.0.1, SVG Export Plug-In . SVG Version: 6.00 Build 0)  -->
<svg version="1.1" id="Layer_1" xmlns="http://www.w3.org/2000/svg" xmlns:xlink="http://www.w3.org/1999/xlink" x="0px" y="0px"
	 viewBox="0 0 43 44" style="enable-background:new 0 0 43 44;" xml:space="preserve">
<style type="text/css">
	.st0{enable-background:new    ;}
	.st1{fill:#FFFFFF;}
</style>
<g class="st0">
	<g>
		<path class="st1" d="M35.7,37.3c0.2-0.2,0.5-0.4,0.5-0.3c0.2,0.5,0.1,0.9-0.3,1.4c-0.4,0.3-0.7,0.6-1.2,1c0.3-0.4,0.5-0.8,0.3-1.3
			C35,37.9,35.6,37.3,35.7,37.3"/>
		<path class="st1" d="M24.7,33.3c0.6,0.1,0.4,1,0,1.3c-0.1,0.1-0.2,0.1-0.3,0.1c-1.2-0.1-2.5-0.1-3.7-0.1c0.1-0.5,0.1-0.9,0-1.4
			C22.1,33.2,23.4,33.2,24.7,33.3"/>
		<path class="st1" d="M34.2,36c0.2-0.2,0.5-0.4,0.7-0.4c0.5,0.3,0.8,0.5,1,0.8c0.1,0.4-1,1.2-1.2,1.1c-0.2-0.3-0.5-0.5-0.9-0.8
			C33.6,36.6,34.2,36,34.2,36"/>
		<path class="st1" d="M32.9,35.5c0-0.1,0.5-0.5,0.8-0.4c0.1,0.1,0.3,0.1,0.4,0.2c0.3,0.2-0.4,1.1-0.9,1.2c-0.1,0-0.1,0-0.1,0
			c-0.1-0.1-0.3-0.1-0.4-0.2C32.4,36.2,32.7,35.7,32.9,35.5"/>
		<path class="st1" d="M25.8,34c0.1-0.1,0.3-0.5,0.7-0.5c2.3,0.2,4.4,0.7,6,1.2c0.4,0.2-0.3,1.1-0.7,1.3c0,0-0.1,0-0.2,0
			c-1.5-0.5-3.4-0.9-5.6-1.1C25.5,34.7,25.8,34,25.8,34"/>
		<path class="st1" d="M35.1,39.1c0.1-0.1,0.2-0.2,0.3-0.3c-0.4,0.3-0.9,0.8-1.3,1.1C34.4,39.7,34.8,39.4,35.1,39.1"/>
		<path class="st1" d="M18.4,33.8c0-0.3,0.1-0.8,0.6-0.8c0.8,0,1,1.2,0.5,1.6C19.1,35,18.5,34.6,18.4,33.8 M17.3,33.8
			c0.1,1,1,2.4,2.1,2.3c1.6-0.3,1.8-3.3,0.3-4.3C18.6,31.1,17.1,32,17.3,33.8"/>
		<path class="st1" d="M36.4,30.2c0.1-0.2,0.4-0.5,0.6-0.4c0.4,0.2,0.7,0.3,1,0.5c0.4,0.2,0.7,0.4,1,0.7c-0.3,0.4-0.5,0.9-0.8,1.4
			c-0.3-0.2-0.6-0.4-0.9-0.6c-0.3-0.2-0.6-0.3-1-0.5C36,31,36.4,30.3,36.4,30.2"/>
		<path class="st1" d="M17.8,28c0-0.2,0.1-0.6,0.6-0.7c2.1-0.1,4.2-0.1,6.2,0.1c-0.2,0.5-0.2,1-0.2,1.6c-1.9-0.1-4-0.1-6-0.1
			C17.7,28.9,17.8,28.1,17.8,28"/>
		<path class="st1" d="M11.9,28.6c0-0.2,0-0.6,0.5-0.7c0.1,0,0.2,0,0.3,0c1.1-0.2,2.3-0.3,3.4-0.4c0.8,0,0.9,1.1,0.6,1.4
			c-0.1,0.1-0.2,0.1-0.3,0.2c-1.1,0.1-2.2,0.2-3.3,0.3c-0.1,0-0.2,0-0.3,0C12,29.5,11.9,28.6,11.9,28.6"/>
		<path class="st1" d="M32.9,29.2c0.1-0.2,0.3-0.5,0.7-0.5c0.7,0.2,1.4,0.4,2,0.6c0.5,0.3,0,1.4-0.5,1.5c-0.1,0-0.1,0-0.2,0
			c-0.6-0.2-1.2-0.4-1.9-0.5C32.6,30,32.8,29.4,32.9,29.2"/>
		<path class="st1" d="M28.3,29.3c0.3-0.7,0.3-1.3,0.3-1.5c1,0.1,1.9,0.3,2.9,0.4c0.7,0.2,0.3,1.2-0.1,1.5c-0.1,0.1-0.3,0.1-0.3,0.1
			C30.2,29.6,29.2,29.5,28.3,29.3C28.3,29.3,28.3,29.3,28.3,29.3"/>
		<path class="st1" d="M9.5,29.1c-0.1-0.2-0.1-0.7,0.3-0.8c0.3-0.1,0.5-0.1,0.8-0.2c0.7-0.1,1.1,1,0.7,1.4c-0.1,0.1-0.2,0.1-0.2,0.1
			c-0.3,0-0.5,0.1-0.8,0.1C9.9,29.9,9.5,29.5,9.5,29.1"/>
		<path class="st1" d="M39.1,31.9c0.2-0.3,0.5-0.7,0.6-0.6c0.2,0.4-0.7,1.8-1,1.8C38.5,33.1,38.7,32.5,39.1,31.9 M38.7,31.6
			c-0.4,0.6-1.3,2.5-0.9,2.9c0.8,0.3,3.1-3.5,2.7-4.5C40.2,29.5,39.4,30.2,38.7,31.6"/>
		<path class="st1" d="M25.8,28.2c0.1-0.3,0.3-0.8,0.9-0.8c0.8,0.1,0.8,1.3,0.2,1.8c-0.6,0.5-1.3,0-1.2-0.9
			C25.7,28.3,25.8,28.2,25.8,28.2 M24.5,28.1c-0.1,1.1,0.3,2.7,1.8,2.8c2.1-0.1,3.2-3.4,1.6-4.7C26.6,25.1,24.7,26.2,24.5,28.1"/>
		<path class="st1" d="M33,22.7c0.1-0.2,0.2-0.6,0.7-0.5c1.9,0.4,3.5,0.9,4.9,1.4c-0.2,0.5-0.3,1-0.3,1.6c-1.3-0.6-2.9-1-4.8-1.4
			C32.8,23.6,33,22.8,33,22.7"/>
		<path class="st1" d="M27.1,21.9c0-0.2,0.2-0.6,0.7-0.6c1.3,0.1,2.6,0.3,3.8,0.5c0.8,0.2,0.7,1.3,0.2,1.6c-0.1,0.1-0.3,0.1-0.4,0.1
			c-1.2-0.2-2.4-0.3-3.7-0.5C26.9,22.8,27.1,21.9,27.1,21.9"/>
		<path class="st1" d="M17.1,21.8c0-0.2,0.1-0.6,0.7-0.7c1.4-0.1,2.8-0.1,4.2-0.1c0.9,0.1,0.9,1.2,0.4,1.5c-0.2,0.1-0.3,0.1-0.4,0.1
			c-1.4,0-2.8,0-4.1,0C17,22.7,17.1,21.8,17.1,21.8"/>
		<path class="st1" d="M15.5,21.2c0.9,0,0.9,1.1,0.5,1.5c-0.1,0.1-0.3,0.2-0.4,0.2c-1.3,0.1-2.5,0.2-3.7,0.4c-1,0.1-2,0.3-2.9,0.5
			c0-0.6,0-1.1-0.2-1.7c0.9-0.2,1.9-0.3,2.9-0.5C13,21.4,14.2,21.3,15.5,21.2"/>
		<path class="st1" d="M42,27.1c0.1-0.4,0.2-0.4,0.2-0.5c0,0,0,0,0,0c0,0.2,0,0.4,0,0.6c-0.1,0.5-0.3,1.2-0.4,1.7
			c0.1-0.2,0.1-0.5,0.1-0.7C41.8,28,42,27.1,42,27.1"/>
		<path class="st1" d="M41.9,25.9c0.1,0.4-0.1,1.6-0.4,1.6c0,0,0,0,0,0c-0.2-0.3-0.5-0.7-1-1c0.2-0.5,0.3-1,0.4-1.6
			C41.3,25.2,41.6,25.5,41.9,25.9"/>
		<path class="st1" d="M23.9,21.8c0-0.3,0.2-0.7,0.8-0.7c0.3,0,0.7,0,1,0.1c0.8,0.1,0.9,1.1,0.4,1.5c-0.2,0.2-0.4,0.2-0.5,0.2
			c-0.3,0-0.7,0-1-0.1C24.1,22.7,23.9,22.2,23.9,21.8"/>
		<path class="st1" d="M39.2,24.7c0.1-0.3,0.3-0.8,0.7-0.7c0.6,0.4,0.2,2-0.3,2.1C39.2,26.1,39,25.4,39.2,24.7 M38.4,24.3
			c-0.3,1.2-0.2,3,0.7,3.4c1.5,0.4,2.3-3.6,1.4-4.9C39.8,21.7,38.8,22.5,38.4,24.3"/>
		<path class="st1" d="M6.3,23.4c0-0.3,0.1-0.9,0.6-1.1c0.8-0.1,1.2,1.1,0.7,1.8c-0.4,0.6-1.1,0.2-1.3-0.6
			C6.3,23.5,6.3,23.4,6.3,23.4 M5.2,23.5c0.2,1.5,1.2,2.8,2.5,2.4c2-0.9,1.5-4.7-0.2-5.3C6.2,20.2,5,21.7,5.2,23.5"/>
		<path class="st1" d="M5.5,17c0-0.2,0.2-0.6,0.6-0.8c1.2-0.3,2.6-0.6,4.1-0.8C10,16,10,16.5,10.1,17c-1.5,0.2-2.9,0.5-4.1,0.9
			C5.5,18,5.5,17.2,5.5,17"/>
		<path class="st1" d="M16.3,15.4c0-0.2,0.2-0.6,0.8-0.7c2.4-0.1,4.8-0.1,7.1,0c-0.2,0.5-0.1,1.1,0,1.6c-2.3-0.1-4.7-0.1-7.1,0
			C16.2,16.3,16.2,15.6,16.3,15.4"/>
		<path class="st1" d="M34.4,17.4c0.1-0.7,0-1.3-0.1-1.5c1.5,0.3,2.9,0.7,4,1.2c0.6,0.3,0.6,1.5,0.3,1.7c-0.1,0-0.1,0-0.2,0
			C37.3,18.3,35.9,17.9,34.4,17.4C34.4,17.5,34.4,17.5,34.4,17.4"/>
		<path class="st1" d="M2.1,18.4c0-0.2,0.1-0.6,0.4-0.8C3,17.3,3.6,17,4.3,16.8c0.6-0.1,0.5,1,0.2,1.4c-0.1,0.1-0.2,0.2-0.3,0.2
			c-0.7,0.2-1.3,0.5-1.8,0.7C2,19.3,2,18.6,2.1,18.4"/>
		<path class="st1" d="M0.5,19.5c0-0.2,0.1-0.8,0.3-0.9c0.1-0.1,0.2-0.2,0.4-0.3c0.3-0.1,0.3,0.6,0.1,1.2c-0.1,0.3-0.2,0.4-0.2,0.5
			c-0.1,0.1-0.3,0.2-0.4,0.3C0.5,20.3,0.4,19.8,0.5,19.5"/>
		<path class="st1" d="M39.5,18.2c0-0.1,0-0.6,0.3-0.5c0,0,1.2,0.6,2,1.4c0.5,0.6,0.6,0.8,0.7,1.4c0,0.5,0.1,1.3,0.1,1.8
			c0-0.9-0.7-1.8-2.2-2.6c-0.2-0.1-0.3-0.2-0.5-0.3C39.5,19.1,39.5,18.3,39.5,18.2"/>
		<path class="st1" d="M11.5,15.9c0-0.3,0.3-0.9,1-1c0.9-0.1,1.2,1,0.6,1.7c-0.6,0.7-1.5,0.4-1.6-0.4C11.4,16.1,11.5,16,11.5,15.9
			 M10,16.1c-0.1,1.2,0.7,2.8,2.6,2.5c2.4-0.7,2.9-3.9,1.2-5C12.3,12.7,10.2,14.1,10,16.1"/>
		<path class="st1" d="M25.5,15.4c0-0.3,0.2-0.8,0.9-0.8c1,0.1,1.2,1.3,0.6,1.8C26.4,17,25.5,16.3,25.5,15.4 M24,15.4
			c0,1.2,0.8,2.9,2.7,3c2.4-0.2,2.8-3.4,1-4.7C26.2,12.4,24.1,13.4,24,15.4"/>
		<path class="st1" d="M31.6,16.1c0-0.3,0.2-0.8,0.8-0.8c0.9,0.2,1.1,1.5,0.5,1.9C32.3,17.6,31.5,16.9,31.6,16.1 M30.2,15.7
			c-0.1,1.3,0.7,3.1,2.4,3.4c2.2,0,2.5-3,0.9-4.6C32.1,13.1,30.3,13.8,30.2,15.7"/>
		<path class="st1" d="M41,14.4c-0.1-0.1-0.1-0.3-0.2-0.4l0.2,0.5l0.4,1l0,0C41.3,15.3,41.1,14.8,41,14.4"/>
		<path class="st1" d="M20.7,10.3c0.2-0.6,0-1.1,0-1.2c1.8,0,3.5,0.1,5.2,0.2c0.8,0.1,1,1,0.5,1.2c-0.1,0.1-0.3,0.1-0.4,0.1
			C24.3,10.5,22.5,10.4,20.7,10.3C20.7,10.4,20.7,10.3,20.7,10.3"/>
		<path class="st1" d="M39,12.7c0-0.1-0.1-0.5,0.1-0.4c0.6,0.4,1,0.7,1.3,1.1c0.2,0.3,0.6,1.3,0.6,1.5c0,0,0,0,0,0c0,0,0,0,0,0
			c-0.3-0.4-0.8-0.7-1.4-1.1C39.2,13.4,39,12.7,39,12.7"/>
		<path class="st1" d="M37.3,12c-0.1-0.2-0.1-0.5,0.2-0.4c0.2,0.1,0.4,0.2,0.6,0.2c0.5,0.3,0.9,1.3,0.6,1.4c0,0-0.1,0-0.1,0
			c-0.2-0.1-0.4-0.2-0.6-0.2C37.7,12.8,37.4,12.3,37.3,12"/>
		<path class="st1" d="M27.6,9.9c0-0.1,0.1-0.5,0.6-0.5c3,0.3,5.7,0.8,7.9,1.5c0.7,0.3,0.9,1.3,0.6,1.4c0,0-0.1,0-0.2,0
			c-2.2-0.7-5-1.3-8.1-1.6C27.6,10.6,27.6,9.9,27.6,9.9"/>
		<path class="st1" d="M17.5,9.7c0.1-0.3,0.3-0.7,1-0.8c0.9,0,1.1,0.9,0.6,1.4C18.4,10.9,17.4,10.6,17.5,9.7
			C17.5,9.8,17.5,9.8,17.5,9.7 M16.1,9.7c-0.3,1.2,0.7,2.5,2.4,2.3c2.3-0.3,3-2.8,1.5-3.8C18.5,7.1,16.4,8.1,16.1,9.7"/>
		<path class="st1" d="M35.1,7.3C34.9,7.1,35,7,35,7c0,0,0.1,0,0.1,0c0.3,0.1,0.6,0.3,0.9,0.4c0.3,0.2,0.6,0.4,0.8,0.6
			c0.3,0.3,0.6,0.7,0.9,1.2c-0.2-0.2-0.5-0.4-0.9-0.6c-0.3-0.2-0.6-0.3-0.9-0.5C35.5,7.9,35.1,7.3,35.1,7.3"/>
		<path class="st1" d="M18.1,5.3c0-0.1,0.2-0.3,0.7-0.4c1.8-0.1,3.7,0,5.5,0c-0.1,0.3,0,0.6,0.2,1c-1.9-0.1-3.8-0.1-5.8-0.1
			C18,5.8,18,5.4,18.1,5.3"/>
		<path class="st1" d="M12.8,5.8c0.1-0.1,0.3-0.4,0.7-0.5c0.1,0,0.2,0,0.2,0c1-0.1,2-0.2,3-0.3c0.6,0,0.6,0.5,0.3,0.7
			C16.9,5.9,16.6,6,16.5,6c-1.1,0.1-2.1,0.2-3.2,0.3c-0.1,0-0.2,0-0.2,0C12.5,6.4,12.7,6,12.8,5.8"/>
		<path class="st1" d="M31.9,6.3C31.8,6.2,31.8,6,32.1,6c0.6,0.2,1.2,0.3,1.7,0.5c0.6,0.2,1.1,1,0.9,1.1c0,0-0.1,0-0.1,0
			c-0.6-0.2-1.2-0.4-1.8-0.5C32.1,6.9,31.9,6.3,31.9,6.3"/>
		<path class="st1" d="M30.2,5.6c0.6,0.2,1,0.8,0.8,1c-0.1,0.1-0.2,0-0.2,0c-0.8-0.2-1.7-0.3-2.6-0.4c0-0.3-0.1-0.6-0.4-1
			C28.6,5.4,29.4,5.5,30.2,5.6"/>
		<path class="st1" d="M10.5,6.3c0.1-0.2,0.4-0.5,0.8-0.6c0.2,0,0.5-0.1,0.7-0.1c0.4-0.1,0.4,0.3,0.2,0.6c-0.1,0.1-0.3,0.4-0.7,0.5
			c-0.3,0-0.5,0.1-0.7,0.1C10.3,6.8,10.3,6.5,10.5,6.3"/>
		<path class="st1" d="M37.6,8.8c-0.1-0.1-0.2-0.3-0.3-0.4l0.1,0.1c0.3,0.4,0.8,0.9,1.1,1.3C38.3,9.8,37.9,9.3,37.6,8.8 M37.2,8.5
			c0.6,0.7,1,1.2,2.1,2.7c0,0,0,0,0,0c-1.2-1.8-1.2-1.8-2-2.7c-0.3-0.4-0.8-0.9-1.2-1.2l0,0C36.4,7.6,36.8,8,37.2,8.5"/>
		<path class="st1" d="M25.4,5.4c0-0.2,0.1-0.5,0.6-0.5c0.8,0.1,1.2,0.8,0.8,1.1C26.3,6.4,25.5,6,25.4,5.4 M24.2,5.4
			c0.1,0.9,1.1,1.8,2.5,1.9c1.5,0,1.7-1.3,0.8-2.3c-1.3-1.3-3.3-1.2-3.3,0.1C24.2,5.2,24.2,5.3,24.2,5.4"/>
	</g>
</g>
</svg>
